<svg width="24" height="24" viewBox="0 0 24 24" fill="none" xmlns="http://www.w3.org/2000/svg">
<g clip-path="url('#clip0_1349_1477')">
<path d="M20.38 8.57012L19.15 10.4201C19.7432 11.6032 20.0336 12.915 19.9952 14.2378C19.9568 15.5607 19.5908 16.8534 18.93 18.0001H5.07005C4.21122 16.5102 3.85535 14.7832 4.05519 13.0752C4.25504 11.3671 4.99996 9.76895 6.17953 8.51755C7.3591 7.26615 8.91052 6.42816 10.6038 6.12782C12.2971 5.82747 14.042 6.08076 15.5801 6.85012L17.4301 5.62012C15.5465 4.41234 13.3124 3.87113 11.0849 4.08306C8.8575 4.29499 6.76549 5.24782 5.14354 6.78913C3.52159 8.33045 2.46341 10.3712 2.13827 12.5849C1.81312 14.7987 2.2398 17.0575 3.35005 19.0001C3.52456 19.3024 3.77514 19.5537 4.07688 19.7292C4.37862 19.9046 4.72102 19.998 5.07005 20.0001H18.92C19.2725 20.0015 19.619 19.9098 19.9246 19.7342C20.2301 19.5586 20.4838 19.3053 20.66 19.0001C21.5814 17.404 22.0438 15.5844 21.9962 13.7421C21.9485 11.8998 21.3927 10.1064 20.39 8.56012L20.38 8.57012Z" fill="#3498DB"></path>
<path d="M10.9437 15.0566L10.9433 15.0562C10.8039 14.9169 10.6932 14.7514 10.6178 14.5693C10.5423 14.3872 10.5034 14.192 10.5034 13.9949C10.5034 13.7978 10.5423 13.6026 10.6178 13.4205C10.6874 13.2525 10.7869 13.0988 10.9114 12.9666L17.2772 8.7227L13.0333 15.0885C12.9012 15.213 12.7474 15.3125 12.5794 15.3822C12.3973 15.4576 12.2021 15.4965 12.005 15.4965C11.8079 15.4965 11.6127 15.4576 11.4306 15.3822C11.2485 15.3067 11.0831 15.196 10.9437 15.0566Z" stroke="#3498DB"></path>
</g>
<defs>
<clipPath id="clip0_1349_1477">
<rect width="24" height="24" fill="white"></rect>
</clipPath>
</defs>
</svg>
